<svg width="32" height="32" viewBox="0 0 32 32" fill="none" xmlns="http://www.w3.org/2000/svg">
<path fill-rule="evenodd" clip-rule="evenodd" d="M15.9508 0C24.8123 0 32 7.08923 32 15.9508C32 20.7754 29.8338 25.1077 26.4862 27.9631C26.7815 22.6462 26.6831 15.7538 24.32 12.0123C26.2892 9.94461 25.3046 5.51385 24.2215 5.31692C23.2369 5.21846 21.3662 6.4 20.0862 7.97538C17.4277 6.59692 14.5723 6.49846 11.52 7.97538C10.3385 7.58154 7.28615 6.59692 6.30154 6.79385C5.31692 6.99077 5.41538 9.94461 7.28615 12.0123C6.99077 12.5046 6.69538 12.9969 6.49846 13.4892C5.80923 15.4585 5.41538 18.0185 5.21846 20.6769C4.03692 21.8585 3.05231 23.04 2.26462 24.2215C0.886154 21.8585 0 19.0031 0 15.9508C0 7.08923 7.18769 0 15.9508 0ZM11.3231 13.1938C12.2092 13.1938 12.8985 14.1785 12.8985 15.36C12.8985 16.64 12.2092 17.6246 11.3231 17.6246C10.4369 17.6246 9.74769 16.64 9.74769 15.36C9.74769 14.1785 10.4369 13.1938 11.3231 13.1938ZM20.0862 13.1938C20.9723 13.1938 21.6615 14.1785 21.6615 15.36C21.6615 16.64 20.9723 17.6246 20.0862 17.6246C19.2 17.6246 18.5108 16.64 18.5108 15.36C18.5108 14.1785 19.2 13.1938 20.0862 13.1938Z" fill="#0D0E59"/>
</svg>
